<svg width="55" height="55" viewBox="0 0 55 55" fill="none" xmlns="http://www.w3.org/2000/svg">
<g id="openmoji:dj">
<path id="Vector" d="M40.2271 37.6765H14.7728C13.3641 37.6765 12.2222 38.8183 12.2222 40.2268C12.2222 41.6352 13.3641 42.777 14.7728 42.777H40.2271C41.6358 42.777 42.7777 41.6352 42.7777 40.2268C42.7777 38.8183 41.6358 37.6765 40.2271 37.6765Z" fill="#9B9B9A"/>
<path id="Vector_2" d="M42.7778 40.2271V42.7777H30.4976V37.6772H42.7778V40.2271Z" fill="#D0CFCE"/>
<g id="Group">
<path id="Vector_3" d="M27.4988 17.8643C28.9754 17.8643 30.1724 16.6673 30.1724 15.1907C30.1724 13.7141 28.9754 12.5171 27.4988 12.5171C26.0222 12.5171 24.8252 13.7141 24.8252 15.1907C24.8252 16.6673 26.0222 17.8643 27.4988 17.8643Z" fill="#FCEA2B"/>
<path id="Vector_4" d="M40.9828 11.4812C40.8539 11.4368 40.7173 11.4193 40.5814 11.4299C40.4455 11.4404 40.3131 11.4787 40.1926 11.5424C40.0721 11.6062 39.9659 11.6939 39.8807 11.8004C39.7955 11.9068 39.7331 12.0296 39.6972 12.1611L37.9265 17.9957C37.7984 18.2365 37.624 18.4496 37.4134 18.6229C37.2027 18.7962 36.9599 18.9262 36.6989 19.0055L33.8367 19.7076C32.8512 19.9558 31.8528 20.143 30.8445 20.2667L24.2033 20.7587C23.1831 20.7211 22.1807 21.032 21.3608 21.6402L20.8872 21.9923L20.7726 22.0894C19.9799 22.8361 19.3527 23.741 18.9317 24.7454L18.4076 26.3114C18.2411 26.7827 17.9867 27.4954 17.7415 28.0943C17.5415 28.5562 17.4415 29.0552 17.4481 29.5586C17.4546 30.0619 17.5677 30.5581 17.7797 31.0146L20.6848 34.8707C20.8712 35.281 21.2798 35.5445 21.7298 35.5445C21.8871 35.5445 21.7626 35.5766 21.9162 35.5078C22.0502 35.4585 22.1725 35.3818 22.2752 35.2825C22.3779 35.1833 22.4587 35.0637 22.5126 34.9314C22.5664 34.7991 22.5921 34.657 22.5879 34.5143C22.5837 34.3715 22.5498 34.2312 22.4883 34.1023L20.1126 29.8573C20.0394 29.6883 20.0028 29.5057 20.0052 29.3215C20.0076 29.1374 20.0489 28.9558 20.1264 28.7887C20.4938 28.0523 20.904 27.3373 21.3539 26.6482L22.1568 32.7991C22.1802 32.9781 22.2678 33.1425 22.4034 33.2617C22.5391 33.3809 22.7134 33.4467 22.8939 33.4469L31.2807 33.4568C31.7123 33.4568 32.0629 33.1069 32.0637 32.6753V27.3686C32.0273 26.1378 32.2718 24.915 32.7787 23.7928L37.6019 21.4469C38.1818 21.1842 38.7025 20.8066 39.1323 20.337C39.5622 19.8673 39.8924 19.3154 40.1028 18.7145L41.6459 12.8753C41.7286 12.6022 41.7064 12.3081 41.5838 12.0504C41.4612 11.7928 41.2469 11.5901 40.9828 11.482V11.4812Z" fill="#FCEA2B"/>
</g>
<path id="Vector_5" d="M27.5017 17.8643C28.9783 17.8643 30.1753 16.6673 30.1753 15.1907C30.1753 13.7141 28.9783 12.5171 27.5017 12.5171C26.0251 12.5171 24.8281 13.7141 24.8281 15.1907C24.8281 16.6673 26.0251 17.8643 27.5017 17.8643Z" stroke="black" stroke-width="2.333" stroke-miterlimit="10"/>
<path id="Vector_6" d="M32.0614 23.5217L31.6795 24.6676C31.4347 25.538 31.3062 26.437 31.2975 27.3412V32.6884M22.8947 32.6884L22.1309 26.5773" stroke="black" stroke-width="2" stroke-linecap="round" stroke-linejoin="round"/>
<path id="Vector_7" d="M21.1268 34.8708L17.6824 30.5471C17.5254 30.2271 17.4368 29.8778 17.4225 29.5216C17.4081 29.1654 17.4683 28.8101 17.5992 28.4785C17.8391 27.8781 18.0662 27.2728 18.2806 26.6628L18.8649 24.9669C19.2263 24.0326 19.7622 23.1756 20.4439 22.4415L20.5753 22.3109C21.301 21.6561 22.2092 21.2383 23.1786 21.1131L30.0674 20.583C31.0776 20.4903 32.0802 20.3274 33.0679 20.0956L36.2151 19.3088C36.6585 19.1709 37.0661 18.9369 37.4088 18.6236C37.7516 18.3103 38.0211 17.9254 38.1982 17.4961L40.0842 12.0641" stroke="black" stroke-width="2" stroke-linecap="round" stroke-linejoin="round"/>
<path id="Vector_8" d="M23.4858 15.6253V13.1534C23.4858 12.0873 23.9093 11.0649 24.6631 10.3111C25.417 9.55728 26.4394 9.13379 27.5054 9.13379C28.0333 9.13369 28.5561 9.23758 29.0439 9.43954C29.5317 9.6415 29.9749 9.93757 30.3482 10.3108C30.7215 10.6841 31.0177 11.1272 31.2197 11.615C31.4218 12.1027 31.5258 12.6254 31.5258 13.1534V15.6253" stroke="black" stroke-width="2.216" stroke-linecap="round" stroke-linejoin="round"/>
<path id="Vector_9" d="M16.4496 35.5078H26.2014M28.7933 35.5078H38.5443M42.7763 40.2271V37.6773H12.2207V42.7777H42.7763V40.2271Z" stroke="black" stroke-width="2" stroke-linecap="round" stroke-linejoin="round"/>
<path id="Vector_10" d="M35.6408 40.991C36.0627 40.991 36.4047 40.649 36.4047 40.2271C36.4047 39.8053 36.0627 39.4633 35.6408 39.4633C35.219 39.4633 34.877 39.8053 34.877 40.2271C34.877 40.649 35.219 40.991 35.6408 40.991Z" fill="black"/>
<path id="Vector_11" d="M37.9231 40.991C38.345 40.991 38.687 40.649 38.687 40.2271C38.687 39.8053 38.345 39.4633 37.9231 39.4633C37.5012 39.4633 37.1592 39.8053 37.1592 40.2271C37.1592 40.649 37.5012 40.991 37.9231 40.991Z" fill="black"/>
<path id="Vector_12" d="M23.3184 15.7437C22.9873 15.7437 22.6697 15.6122 22.4355 15.378C22.2014 15.1439 22.0698 14.8263 22.0698 14.4952C22.0698 14.164 22.2014 13.8464 22.4355 13.6123C22.6697 13.3781 22.9873 13.2466 23.3184 13.2466M31.5157 13.2466C31.8468 13.2466 32.1644 13.3781 32.3986 13.6123C32.6327 13.8464 32.7643 14.164 32.7643 14.4952C32.7643 14.8263 32.6327 15.1439 32.3986 15.378C32.1644 15.6122 31.8468 15.7437 31.5157 15.7437" stroke="black" stroke-width="2.216" stroke-linecap="round" stroke-linejoin="round"/>
</g>
</svg>
