<svg width="24" height="27" viewBox="0 0 24 27" fill="none" xmlns="http://www.w3.org/2000/svg">
<path d="M14.6667 24.25V22.4167C14.6667 21.4442 14.2804 20.5116 13.5927 19.8239C12.9051 19.1363 11.9725 18.75 11 18.75H4.58333C3.61087 18.75 2.67824 19.1363 1.99061 19.8239C1.30297 20.5116 0.916664 21.4442 0.916664 22.4167V24.25" stroke="white" stroke-width="1.5" stroke-linecap="round" stroke-linejoin="round"/>
<path d="M7.79167 15.0833C9.81671 15.0833 11.4583 13.4417 11.4583 11.4167C11.4583 9.39162 9.81671 7.75 7.79167 7.75C5.76662 7.75 4.125 9.39162 4.125 11.4167C4.125 13.4417 5.76662 15.0833 7.79167 15.0833Z" stroke="white" stroke-width="1.5" stroke-linecap="round" stroke-linejoin="round"/>
<path d="M14.6553 9.32H16.5353C18.2393 9.32 19.5433 10.312 19.5433 12.144C19.5433 13.904 18.3193 15 16.5433 15H14.6553V9.32ZM15.3273 14.384H16.5193C17.8633 14.384 18.8553 13.592 18.8553 12.16C18.8553 10.776 17.9273 9.936 16.5193 9.936H15.3273V14.384ZM21.6776 15.12C20.8536 15.12 20.1896 14.608 19.9336 13.824L20.5736 13.632C20.8136 14.216 21.1816 14.504 21.6776 14.504C22.4136 14.504 22.7496 13.904 22.7496 13.216V9.32H23.4216V13.208C23.4216 14.264 22.8216 15.12 21.6776 15.12Z" fill="white"/>
</svg>
