<svg width="50" height="50" viewBox="0 0 50 50" fill="none" xmlns="http://www.w3.org/2000/svg">
<g id="octicon:share-16">
<path id="Vector" d="M11.7188 20.3124C11.5115 20.3124 11.3128 20.3947 11.1663 20.5412C11.0198 20.6877 10.9375 20.8864 10.9375 21.0936V41.4061C10.9375 41.8374 11.2875 42.1874 11.7188 42.1874H38.2812C38.4885 42.1874 38.6872 42.1051 38.8337 41.9586C38.9802 41.8121 39.0625 41.6133 39.0625 41.4061V21.0936C39.0625 20.8864 38.9802 20.6877 38.8337 20.5412C38.6872 20.3947 38.4885 20.3124 38.2812 20.3124H35.1562C34.5346 20.3124 33.9385 20.0655 33.499 19.6259C33.0594 19.1864 32.8125 18.5902 32.8125 17.9686C32.8125 17.347 33.0594 16.7509 33.499 16.3114C33.9385 15.8718 34.5346 15.6249 35.1562 15.6249H38.2812C41.3 15.6249 43.75 18.0749 43.75 21.0936V41.4061C43.75 42.8565 43.1738 44.2475 42.1482 45.2731C41.1227 46.2987 39.7317 46.8749 38.2812 46.8749H11.7188C10.2683 46.8749 8.87735 46.2987 7.85176 45.2731C6.82617 44.2475 6.25 42.8565 6.25 41.4061V21.0936C6.25 18.0749 8.7 15.6249 11.7188 15.6249H14.8438C15.4654 15.6249 16.0615 15.8718 16.501 16.3114C16.9406 16.7509 17.1875 17.347 17.1875 17.9686C17.1875 18.5902 16.9406 19.1864 16.501 19.6259C16.0615 20.0655 15.4654 20.3124 14.8438 20.3124H11.7188ZM24.4469 0.553008C24.5194 0.480253 24.6057 0.42253 24.7006 0.383145C24.7955 0.343759 24.8972 0.323486 25 0.323486C25.1028 0.323486 25.2045 0.343759 25.2994 0.383145C25.3943 0.42253 25.4806 0.480253 25.5531 0.553008L34.6031 9.60301C34.7127 9.71227 34.7873 9.8516 34.8176 10.0033C34.8478 10.1551 34.8323 10.3124 34.7731 10.4553C34.7139 10.5982 34.6135 10.7203 34.4848 10.8062C34.356 10.892 34.2047 10.9377 34.05 10.9374H27.3438V28.9061C27.3438 29.5277 27.0968 30.1239 26.6573 30.5634C26.2177 31.003 25.6216 31.2499 25 31.2499C24.3784 31.2499 23.7823 31.003 23.3427 30.5634C22.9032 30.1239 22.6563 29.5277 22.6562 28.9061V10.9374H15.95C15.7953 10.9377 15.644 10.892 15.5152 10.8062C15.3865 10.7203 15.2861 10.5982 15.2269 10.4553C15.1677 10.3124 15.1522 10.1551 15.1824 10.0033C15.2127 9.8516 15.2873 9.71227 15.3969 9.60301L24.4469 0.553008Z" fill="black"/>
</g>
</svg>
